HIERARCHY
ROOT Hips
{
	OFFSET 0.000000 0.000000 0.000000
	CHANNELS 6 Xposition Yposition Zposition Zrotation Yrotation Xrotation 
	JOINT LeftUpLeg_virtual
	{
		OFFSET 0.000000 0.000000 0.000000
		CHANNELS 3 Zrotation Yrotation Xrotation
		JOINT LeftUpLeg
		{
			OFFSET 10.205400 -3.823500 0.155100
			CHANNELS 3 Zrotation Yrotation Xrotation
			JOINT LeftLeg
			{
				OFFSET 0.708757 -12.982077 0.567790
				CHANNELS 3 Zrotation Yrotation Xrotation
				JOINT LeftFoot
				{
					OFFSET -0.708756 -10.717838 -2.184338
					CHANNELS 3 Zrotation Yrotation Xrotation
					JOINT LeftToeBase
					{
						OFFSET 0.108149 -7.191104 7.560241
						CHANNELS 3 Zrotation Yrotation Xrotation
						End Site
						{
							OFFSET 0.000000 0.000000 0.000000
						}
					}
				}
			}
		}
	}
	JOINT RightUpLeg_virtual
	{
		OFFSET 0.000000 0.000000 0.000000
		CHANNELS 3 Zrotation Yrotation Xrotation
		JOINT RightUpLeg
		{
			OFFSET -10.205400 -3.823500 0.005500
			CHANNELS 3 Zrotation Yrotation Xrotation
			JOINT RightLeg
			{
				OFFSET -0.708756 -12.982134 0.610632
				CHANNELS 3 Zrotation Yrotation Xrotation
				JOINT RightFoot
				{
					OFFSET 0.708754 -10.717769 -1.945823
					CHANNELS 3 Zrotation Yrotation Xrotation
					JOINT RightToeBase
					{
						OFFSET -0.108140 -7.191069 7.372968
						CHANNELS 3 Zrotation Yrotation Xrotation
						End Site
						{
							OFFSET 0.000000 0.000000 0.000000
						}
					}
				}
			}
		}
	}
	JOINT Spine_virtual
	{
		OFFSET 0.000000 0.000000 0.000000
		CHANNELS 3 Zrotation Yrotation Xrotation
		JOINT Spine
		{
			OFFSET 0.000000 6.876099 0.125700
			CHANNELS 3 Zrotation Yrotation Xrotation
			JOINT Spine1
			{
				OFFSET 0.000000 8.022060 0.146608
				CHANNELS 3 Zrotation Yrotation Xrotation
				JOINT Spine2
				{
					OFFSET 0.000000 9.168068 0.167552
					CHANNELS 3 Zrotation Yrotation Xrotation
					JOINT Neck_virtual
					{
						OFFSET 0.000000 0.000000 0.000000
						CHANNELS 3 Zrotation Yrotation Xrotation
						JOINT Neck
						{
							OFFSET 0.000000 10.314075 0.188496
							CHANNELS 3 Zrotation Yrotation Xrotation
							JOINT Head
							{
								OFFSET 0.000000 7.643700 -2.377400
								CHANNELS 3 Zrotation Yrotation Xrotation
								End Site
								{
									OFFSET 0.000000 0.000000 0.000000
								}
							}
						}
					}
					JOINT LeftShoulder_virtual
					{
						OFFSET 0.000000 0.000000 0.000000
						CHANNELS 3 Zrotation Yrotation Xrotation
						JOINT LeftShoulder
						{
							OFFSET 4.392200 8.824978 0.174984
							CHANNELS 3 Zrotation Yrotation Xrotation
							JOINT LeftArm
							{
								OFFSET 8.771219 -2.981674 -0.026999
								CHANNELS 3 Zrotation Yrotation Xrotation
								JOINT LeftForeArm
								{
									OFFSET 8.512804 0.000000 -0.000000
									CHANNELS 3 Zrotation Yrotation Xrotation
									JOINT LeftHand
									{
										OFFSET 18.484802 0.000000 -0.000000
										CHANNELS 3 Zrotation Yrotation Xrotation
										End Site
										{
											OFFSET 0.000000 0.000000 0.000000
										}
									}
								}
							}
						}
					}
					JOINT RightShoulder_virtual
					{
						OFFSET 0.000000 0.000000 0.000000
						CHANNELS 3 Zrotation Yrotation Xrotation
						JOINT RightShoulder
						{
							OFFSET -4.392200 8.824993 0.141379
							CHANNELS 3 Zrotation Yrotation Xrotation
							JOINT RightArm
							{
								OFFSET -8.771282 -2.981682 -0.094208
								CHANNELS 3 Zrotation Yrotation Xrotation
								JOINT RightForeArm
								{
									OFFSET -8.494598 0.000000 0.000000
									CHANNELS 3 Zrotation Yrotation Xrotation
									JOINT RightHand
									{
										OFFSET -18.483803 0.000000 0.000001
										CHANNELS 3 Zrotation Yrotation Xrotation
										End Site
										{
											OFFSET 0.000000 0.000000 0.000000
										}
									}
								}
							}
						}
					}
				}
			}
		}
	}
}
MOTION
Frames: 7
Frame Time: 0.033333
-2.058876 21.405661 3.030490 -178.938389 -0.069787 179.491661 6.665307 -8.501505 -12.825217 -10.343707 12.451944 -72.704563 17.900925 -1.748299 78.623059 -5.001101 -1.863492 2.365886 0.000000 0.000000 0.000000 3.572141 -2.659590 -11.202144 4.170666 -1.026780 -72.493872 -0.612053 1.344029 71.867927 -4.622249 3.559313 6.342922 0.000000 0.000000 0.000000 2.496153 -2.191534 -18.371716 -3.278730 4.501645 -15.187136 2.541501 -2.565460 5.425959 -0.087901 -0.096111 -0.046574 1.436109 -1.024718 11.414679 -1.008930 2.999598 23.279312 0.000000 0.000000 0.000000 3.609353 -0.566814 6.685334 -8.213059 -13.798538 0.717507 -35.025910 -14.464172 59.779366 162.082301 -80.918576 -137.992019 0.000000 0.000000 0.000000 -0.428479 0.804319 5.807974 28.987261 26.691150 12.476246 23.272297 10.072471 38.657296 179.012496 57.905176 -179.250460 0.000000 0.000000 0.000000 
-2.010334 21.428036 3.054114 -179.113119 0.229603 179.514980 6.663951 -8.508646 -13.112134 -10.060605 12.151643 -72.384255 17.800103 -2.383791 78.594235 -5.134251 -2.565149 2.747686 0.000000 0.000000 0.000000 3.665663 -2.735154 -11.641602 4.174719 -0.958171 -72.262076 -0.571298 0.912228 71.835326 -4.712041 3.831333 6.615632 0.000000 0.000000 0.000000 2.500607 -2.642249 -18.827063 -3.152979 4.583097 -14.970658 2.605114 -2.563373 5.468334 -0.060548 -0.002026 -0.028908 1.613792 -0.971959 11.440468 -0.830758 2.838703 22.828246 0.000000 0.000000 0.000000 3.811467 -0.355737 6.633113 -8.217660 -13.476437 0.841387 -34.770762 -15.110450 60.846262 163.389859 -80.758941 -139.160323 0.000000 0.000000 0.000000 -0.362776 0.907670 5.945002 29.273651 26.949848 12.479533 23.135326 9.898466 39.064376 179.024709 57.833561 -179.323284 0.000000 0.000000 0.000000 
-1.976038 21.435030 3.074868 -179.276524 0.432670 179.487263 6.486636 -8.914041 -13.137762 -9.720660 11.826565 -72.538993 17.244706 -3.292884 78.899552 -4.580654 -2.299929 2.828262 0.000000 0.000000 0.000000 3.715783 -2.775079 -11.850685 4.240643 -1.013185 -72.312586 -0.544531 0.492259 71.911879 -4.688654 4.033450 6.842636 0.000000 0.000000 0.000000 2.053085 -2.581652 -19.065785 -2.939079 4.814525 -14.842969 2.831697 -2.560890 5.424564 -0.117196 -0.195851 -0.033203 1.806920 -0.938760 11.443260 -0.835763 2.610481 22.466685 0.000000 0.000000 0.000000 3.899608 -0.394294 6.618972 -8.188867 -13.443971 0.848945 -34.413362 -15.699946 61.772839 164.435739 -80.650122 -140.113380 0.000000 0.000000 0.000000 -0.264893 0.926494 5.713368 29.504525 26.763488 12.627235 23.040426 9.812286 39.163936 179.058149 57.861422 -179.417445 0.000000 0.000000 0.000000 
-1.980001 21.433996 3.096363 -179.390083 0.741403 179.492522 6.441681 -9.184181 -13.154165 -9.200926 11.336550 -72.480765 16.945091 -3.837340 79.111274 -4.531849 -2.495119 3.024838 0.000000 0.000000 0.000000 3.741277 -2.823886 -11.947875 4.323140 -1.117554 -72.554777 -0.549429 0.186048 71.894776 -4.567858 4.147673 7.144994 0.000000 0.000000 0.000000 1.895678 -2.723952 -19.255900 -2.692182 4.700042 -14.722649 2.848184 -2.525347 5.350864 -0.098290 -0.024505 -0.029277 1.873560 -0.895784 11.367280 -0.798235 2.614302 22.009704 0.000000 0.000000 0.000000 3.968026 -0.303126 6.465128 -8.227139 -13.255483 1.055850 -34.180415 -16.178625 62.301871 165.130342 -80.701301 -140.771865 0.000000 0.000000 0.000000 -0.281766 1.010237 5.649030 29.661015 26.809700 12.642398 23.139528 9.761903 39.157266 179.027277 57.815256 -179.557272 0.000000 0.000000 0.000000 
-2.031403 21.435837 3.133262 -179.484927 0.946461 179.550879 6.477125 -9.427697 -13.199938 -8.886621 10.974367 -72.463519 16.808635 -4.029047 79.191399 -4.402280 -2.548463 3.282662 0.000000 0.000000 0.000000 3.712148 -2.896299 -12.039133 4.362224 -1.246564 -72.794285 -0.598072 0.102175 71.773083 -4.366990 4.172077 7.544118 0.000000 0.000000 0.000000 1.794523 -2.900474 -19.523399 -2.492167 4.782256 -14.561460 2.745474 -2.435153 5.253225 -0.084757 0.012388 -0.019571 1.803305 -0.812267 11.238695 -1.008446 2.641104 21.490249 0.000000 0.000000 0.000000 3.959560 -0.234195 6.355344 -8.408864 -13.174002 1.156088 -33.933800 -16.547259 62.876085 165.681442 -80.782580 -141.292517 0.000000 0.000000 0.000000 -0.313974 1.084687 5.433469 29.679617 26.733215 12.769556 23.194334 9.667435 39.295769 179.265077 57.678311 -179.398156 0.000000 0.000000 0.000000 
-2.088468 21.435293 3.192275 -179.596040 1.047459 179.623566 6.492509 -9.652416 -13.446519 -8.609033 10.645839 -72.399971 16.801980 -4.064436 79.226609 -4.238826 -2.548885 3.706204 0.000000 0.000000 0.000000 3.641649 -2.908095 -12.235184 4.363035 -1.351182 -72.885536 -0.706011 0.165109 71.675145 -4.149126 4.094583 8.015808 0.000000 0.000000 0.000000 1.642194 -2.962526 -19.843815 -2.316390 4.665085 -14.330630 2.589780 -2.262649 5.150643 -0.072673 -0.075739 -0.018983 1.634991 -0.732141 11.102393 -1.350686 2.745954 20.936758 0.000000 0.000000 0.000000 3.806591 -0.151174 6.165301 -8.564530 -13.196575 1.415998 -33.731883 -16.723283 63.136363 165.893042 -80.960602 -141.502573 0.000000 0.000000 0.000000 -0.511037 1.176942 5.206461 29.670219 26.659205 12.862436 23.319705 9.428047 39.709788 179.428755 57.439254 -179.240939 0.000000 0.000000 0.000000 
-2.146946 21.438860 3.255364 -179.587093 1.141923 179.708165 6.565702 -9.715279 -13.879801 -8.419356 10.455572 -72.239646 16.838329 -4.047588 79.275649 -4.066789 -2.573584 4.178859 0.000000 0.000000 0.000000 3.599813 -2.756477 -12.569154 4.304300 -1.360124 -72.685220 -0.856676 0.281423 71.536362 -3.955723 3.950368 8.411872 0.000000 0.000000 0.000000 1.660088 -2.962868 -20.216025 -2.155858 4.680632 -14.034241 2.339178 -2.186080 5.045515 -0.078927 -0.064083 -0.018296 1.387181 -0.656518 10.945000 -1.751400 2.948051 20.262726 0.000000 0.000000 0.000000 3.609099 -0.081590 6.012169 -8.701863 -13.350847 1.795165 -33.522097 -16.759145 63.336542 166.110296 -81.067522 -141.703230 0.000000 0.000000 0.000000 -0.797236 1.250374 5.021347 29.642755 26.584517 13.005442 23.527415 8.975176 40.417658 179.672006 57.141482 -178.925179 0.000000 0.000000 0.000000 
